<svg width="10" height="10" viewBox="0 0 10 10" fill="none" xmlns="http://www.w3.org/2000/svg">
<path d="M5 0C7.76142 2.57702e-07 10 2.23858 10 5C10 7.76142 7.76142 10 5 10C2.23858 10 2.57711e-07 7.76142 0 5C0 2.23858 2.23858 0 5 0ZM7.08789 1.97656C6.88339 1.97656 6.70794 2.09337 6.62598 2.26855L5.41504 2.01172C5.38 2.00591 5.34463 2.01178 5.31543 2.0293C5.28637 2.04686 5.26849 2.07636 5.25684 2.11133L4.88867 3.85352C4.11098 3.87694 3.41499 4.10525 2.91211 4.47363C2.78346 4.35088 2.60211 4.26855 2.40918 4.26855C2.00575 4.26865 1.67871 4.59655 1.67871 5C1.67871 5.29824 1.85402 5.55003 2.11133 5.66699C2.09968 5.73702 2.09376 5.81282 2.09375 5.88867C2.09375 7.01148 3.39768 7.91797 5.01172 7.91797C6.62574 7.91796 7.92969 7.01147 7.92969 5.88867C7.92968 5.81284 7.92376 5.74286 7.91211 5.67285C8.15187 5.55589 8.333 5.29824 8.33301 5C8.33301 4.59656 8.00596 4.26866 7.60254 4.26855C7.40377 4.26855 7.22825 4.34505 7.09961 4.47363C6.60259 4.11695 5.91247 3.8828 5.15234 3.85352L5.48535 2.29199L6.56738 2.52051C6.57911 2.79534 6.80721 3.01758 7.08789 3.01758C7.37436 3.01749 7.6084 2.78356 7.6084 2.49707C7.6084 2.21058 7.37436 1.97665 7.08789 1.97656ZM6.05859 6.70215C6.11121 6.64953 6.19834 6.64956 6.25098 6.70215C6.2918 6.7605 6.29252 6.8419 6.24023 6.89453C5.88351 7.25125 5.2047 7.27441 5.00586 7.27441C4.80703 7.27441 4.12236 7.24541 3.77148 6.89453C3.71932 6.84201 3.71938 6.75472 3.77148 6.70215C3.82412 6.64952 3.91221 6.64952 3.96484 6.70215C4.18714 6.92425 4.66678 7.00586 5.01172 7.00586C5.35667 7.00586 5.83047 6.92426 6.05859 6.70215ZM3.85352 5C4.14007 5 4.37402 5.23396 4.37402 5.52051C4.374 5.80703 4.14005 6.04102 3.85352 6.04102C3.56711 6.04086 3.33303 5.80694 3.33301 5.52051C3.33301 5.23405 3.5671 5.00016 3.85352 5ZM6.14648 5C6.43291 5.00015 6.66699 5.23405 6.66699 5.52051C6.66697 5.80694 6.43289 6.04086 6.14648 6.04102C5.85995 6.04102 5.626 5.80703 5.62598 5.52051C5.62598 5.23396 5.85993 5 6.14648 5Z" fill="#141B34"/>
</svg>
